<?xml version="1.0" encoding="UTF-8" standalone="no"?>
<!DOCTYPE svg PUBLIC "-//W3C//DTD SVG 1.1//EN" "http://www.w3.org/Graphics/SVG/1.1/DTD/svg11.dtd">
<svg width="100%" height="100%" viewBox="0 0 100 100" version="1.1" xmlns="http://www.w3.org/2000/svg" xmlns:xlink="http://www.w3.org/1999/xlink" xml:space="preserve" xmlns:serif="http://www.serif.com/" style="fill-rule:evenodd;clip-rule:evenodd;stroke-linecap:round;stroke-linejoin:round;stroke-miterlimit:1.5;">
    <g id="GreyBackground" transform="matrix(0.706774,0.70744,-0.754067,0.753357,57.432,-19.887)">
        <rect x="-31.219" y="-1.759" width="158.166" height="105.127" style="fill:rgb(217,217,217);fill-opacity:0.77;"/>
    </g>
    <rect x="13.123" y="11.776" width="73.167" height="61.427" style="fill:rgb(154,205,50);fill-opacity:0.77;"/>
    <path id="PlantStem" d="M45.068,71.586C44.66,67.172 39.047,65.92 38.467,59.884C37.782,52.763 42.76,49.784 45.811,47.154C48,45.267 49.73,43.637 50.872,41.427C51.945,39.353 52.175,38.19 52.012,35.649C51.896,33.847 51.129,32.549 50,31.406C48.914,30.307 45.729,29.448 45.729,29.448C45.729,29.448 45.42,28.88 48.401,28.061C50.892,27.376 52.923,27.774 54.133,28.713C55.483,29.761 56.414,30.983 57.071,33.038C57.805,35.334 58.275,38.644 57.887,41.427C57.493,44.254 55.48,46.557 53.481,49.184C51.961,51.181 49.722,52.758 48.993,55.508C48.615,56.933 48.989,57.979 49.745,59.446C50.421,60.759 52.211,61.861 53.332,62.659C54.453,63.457 54.448,63.107 56.946,65.895C57.82,66.87 59.079,71.073 59.324,72.088" style="fill:rgb(100,134,33);stroke:rgb(59,79,19);stroke-width:0.91px;"/>
    <path id="Dirt" d="M66.792,70.929C68.342,73.681 69.227,76.857 69.227,80.238C69.227,90.729 60.71,99.245 50.22,99.245C39.729,99.245 31.213,90.729 31.213,80.238C31.213,76.857 32.097,73.681 33.647,70.929C35.958,71.752 36.689,71.888 39.657,70.929C41.693,70.272 43.897,69.063 45.892,69.779C47.658,70.412 50.78,72.19 53.693,70.851C56.111,69.74 58.892,68.763 60.735,70.111C62.856,71.662 64.844,72.358 66.792,70.929Z" style="fill:rgb(98,78,68);stroke:rgb(60,48,42);stroke-width:0.91px;"/>
    <g id="Seed">
        <g id="RightHusk" transform="matrix(1,0,0,1,0.303076,1.63381)">
            <path d="M55.821,85.526C55.821,85.526 55.404,82.288 55.683,80.195C56.357,75.146 59.518,74.369 59.518,74.369C59.518,74.369 56.177,72.397 53.13,75.36C52.546,75.927 51.972,76.903 51.972,76.903L55.821,85.526Z" style="fill:rgb(67,90,22);stroke:black;stroke-width:0.36px;"/>
        </g>
        <g id="LeftHusk" transform="matrix(1,0,0,1,0.12989,0.663968)">
            <path d="M47.447,77.674C47.447,77.674 45.936,76.043 45.065,75.36C41.732,72.745 39.527,74.109 39.527,74.109C39.527,74.109 41.677,73.314 43.646,80.232C43.964,81.346 44.155,85.959 44.155,85.959L47.447,77.674Z" style="fill:rgb(67,90,22);stroke:black;stroke-width:0.36px;"/>
        </g>
        <path id="Seed1" serif:id="Seed" d="M50,97.885C52.229,97.902 57.527,94.579 57.527,91.714C57.527,87.96 52.229,75.377 50,75.36C47.771,75.343 42.818,88.063 42.818,91.817C42.818,94.951 47.771,97.868 50,97.885Z" style="fill:rgb(121,162,39);stroke:black;stroke-width:0.36px;"/>
        <path d="M50.172,97.885C50.172,97.885 50.609,93.278 48.833,89.417C46.307,83.925 44.217,84.687 42.818,85.044C41.677,85.335 39.657,86.623 39.657,86.623C39.657,86.623 41.616,87.324 42.035,88.075C42.562,89.017 42.467,90.895 42.818,92.275C43.439,94.714 44.292,95.034 45.499,95.955C45.97,96.314 46.77,97.073 47.576,97.39C48.866,97.898 50.172,97.885 50.172,97.885Z" style="fill:rgb(67,90,22);stroke:black;stroke-width:0.36px;"/>
        <g transform="matrix(-1,0,0,1,100.392,1.42109e-14)">
            <path d="M50.172,97.885C50.172,97.885 50.609,93.278 48.833,89.417C46.307,83.925 44.217,84.687 42.818,85.044C41.677,85.335 39.657,86.623 39.657,86.623C39.657,86.623 41.616,87.324 42.035,88.075C42.562,89.017 42.467,90.895 42.818,92.275C43.439,94.714 44.292,95.034 45.499,95.955C45.97,96.314 46.77,97.073 47.576,97.39C48.866,97.898 50.172,97.885 50.172,97.885Z" style="fill:rgb(67,90,22);stroke:black;stroke-width:0.36px;"/>
        </g>
        <path d="M50.043,76.038C49.433,76.215 48.132,78.179 48.616,80.52C49.255,83.603 49.992,85.566 51.95,85.313C53.453,85.118 53.866,84.807 54.115,83.312C54.264,82.421 53.178,80.289 52.622,79.329C52.066,78.369 50.653,75.862 50.043,76.038Z" style="fill:rgb(154,205,50);"/>
    </g>
    <g id="SelectionSquare" transform="matrix(1,0,0,1.0317,0,-0.310661)">
        <rect id="SelectionSquare1" serif:id="SelectionSquare" x="13.123" y="11.599" width="73.167" height="59.656" style="fill:none;stroke:rgb(132,37,152);stroke-width:1.07px;"/>
        <g>
            <g transform="matrix(1,0,0,1,-1.03052,23.0536)">
                <circle cx="14.154" cy="48.201" r="1.799" style="fill:rgb(170,63,192);stroke:rgb(132,37,152);stroke-width:0.89px;"/>
            </g>
            <g transform="matrix(1,0,0,1,72.1366,23.0536)">
                <circle cx="14.154" cy="48.201" r="1.799" style="fill:rgb(170,63,192);stroke:rgb(132,37,152);stroke-width:0.89px;"/>
            </g>
        </g>
        <g transform="matrix(1,0,0,1,0,-59.6558)">
            <g transform="matrix(1,0,0,1,-1.03052,23.0536)">
                <circle cx="14.154" cy="48.201" r="1.799" style="fill:rgb(170,63,192);stroke:rgb(132,37,152);stroke-width:0.89px;"/>
            </g>
            <g transform="matrix(1,0,0,1,72.1366,23.0536)">
                <circle cx="14.154" cy="48.201" r="1.799" style="fill:rgb(170,63,192);stroke:rgb(132,37,152);stroke-width:0.89px;"/>
            </g>
        </g>
    </g>
    <g id="Leaves">
        <g id="Leaf" transform="matrix(0.969037,0,0,0.965028,-0.696238,6.56536)">
            <path id="Leaf1" serif:id="Leaf" d="M45.585,46.987L44.346,44.941C44.346,44.941 45.324,42.75 45.423,41.655C45.522,40.56 45.477,39.276 44.938,38.369C44.4,37.463 43.285,36.613 42.191,36.215C40.908,35.748 39.112,35.344 37.505,35.299C35.939,35.256 33.931,35.507 32.388,35.784C30.791,36.071 29.094,36.538 27.756,36.969C26.69,37.313 24.525,38.531 24.525,38.531C24.525,38.531 26.41,39.743 27.11,40.524C27.81,41.305 28.106,42.4 28.726,43.217C29.329,44.013 30.198,44.838 31.042,45.372C32.02,45.991 33.466,46.646 34.597,46.934C35.66,47.203 36.579,47.332 37.667,47.041C38.75,46.752 39.364,46.395 40.145,45.856C40.71,45.466 41.365,44.939 41.814,44.725C42.168,44.557 42.779,44.308 43.226,44.348C43.602,44.382 44.253,44.532 44.346,44.941C44.48,45.533 44.379,48.02 44.379,48.02L45.585,46.987Z" style="fill:rgb(100,134,33);stroke:rgb(59,79,19);stroke-width:0.56px;"/>
            <path id="Leaf-Shadow" serif:id="Leaf Shadow" d="M42.404,41.135C41.776,40.389 40.916,39.898 39.836,39.193C38.137,38.082 37.399,37.785 36.114,37.471C34.829,37.157 33.352,37.091 32.17,37.11C31.209,37.126 30.284,37.137 29.419,37.191C28.673,37.238 27.771,37.424 26.954,37.809C26.46,38.043 25.424,38.575 25.424,38.575C25.424,38.575 27.732,39.631 28.536,41.665C29.081,43.043 29.975,43.869 30.838,44.585C31.527,45.157 33.196,45.902 34.046,46.182C34.969,46.486 35.873,46.687 36.835,46.609C37.79,46.531 38.676,46.209 39.395,45.689C40.074,45.198 41.261,44.323 41.948,44.019C42.603,43.729 43.446,43.97 43.603,43.666C43.76,43.362 42.809,41.615 42.404,41.135Z" style="fill:rgb(77,104,26);"/>
        </g>
        <g id="Leaf2" serif:id="Leaf" transform="matrix(-0.254817,0.0503438,0.0501355,0.253763,59.1859,49.4626)">
            <path id="Leaf3" serif:id="Leaf" d="M45.585,46.987L44.346,44.941C44.346,44.941 45.324,42.75 45.423,41.655C45.522,40.56 45.477,39.276 44.938,38.369C44.4,37.463 43.285,36.613 42.191,36.215C40.908,35.748 39.112,35.344 37.505,35.299C35.939,35.256 33.931,35.507 32.388,35.784C30.791,36.071 29.094,36.538 27.756,36.969C26.69,37.313 24.525,38.531 24.525,38.531C24.525,38.531 26.41,39.743 27.11,40.524C27.81,41.305 28.106,42.4 28.726,43.217C29.329,44.013 30.198,44.838 31.042,45.372C32.02,45.991 33.466,46.646 34.597,46.934C35.66,47.203 36.579,47.332 37.667,47.041C38.75,46.752 39.364,46.395 40.145,45.856C40.71,45.466 41.365,44.939 41.814,44.725C42.168,44.557 42.779,44.308 43.226,44.348C43.602,44.382 44.253,44.532 44.346,44.941C44.48,45.533 44.379,48.02 44.379,48.02L45.585,46.987Z" style="fill:rgb(100,134,33);stroke:rgb(59,79,19);stroke-width:2.1px;"/>
            <path id="Leaf-Shadow1" serif:id="Leaf Shadow" d="M42.404,41.135C41.776,40.389 40.916,39.898 39.836,39.193C38.137,38.082 37.399,37.785 36.114,37.471C34.829,37.157 33.352,37.091 32.17,37.11C31.209,37.126 30.284,37.137 29.419,37.191C28.673,37.238 27.771,37.424 26.954,37.809C26.46,38.043 25.424,38.575 25.424,38.575C25.424,38.575 27.732,39.631 28.536,41.665C29.081,43.043 29.975,43.869 30.838,44.585C31.527,45.157 33.196,45.902 34.046,46.182C34.969,46.486 35.873,46.687 36.835,46.609C37.79,46.531 38.676,46.209 39.395,45.689C40.074,45.198 41.261,44.323 41.948,44.019C42.603,43.729 43.446,43.97 43.603,43.666C43.76,43.362 42.809,41.615 42.404,41.135Z" style="fill:rgb(77,104,26);"/>
        </g>
        <g id="Leaf4" serif:id="Leaf" transform="matrix(-0.968566,-0.233011,-0.221661,0.921389,110.198,-0.910171)">
            <path id="Leaf5" serif:id="Leaf" d="M45.585,46.987L44.346,44.941C44.346,44.941 45.324,42.75 45.423,41.655C45.522,40.56 45.477,39.276 44.938,38.369C44.4,37.463 43.285,36.613 42.191,36.215C40.908,35.748 39.112,35.344 37.505,35.299C35.939,35.256 33.931,35.507 32.388,35.784C30.791,36.071 29.094,36.538 27.756,36.969C26.69,37.313 24.525,38.531 24.525,38.531C24.525,38.531 26.41,39.743 27.11,40.524C27.81,41.305 28.106,42.4 28.726,43.217C29.329,44.013 30.198,44.838 31.042,45.372C32.02,45.991 33.466,46.646 34.597,46.934C35.66,47.203 36.579,47.332 37.667,47.041C38.75,46.752 39.364,46.395 40.145,45.856C40.71,45.466 41.365,44.939 41.814,44.725C42.168,44.557 42.779,44.308 43.226,44.348C43.602,44.382 44.253,44.532 44.346,44.941C44.48,45.533 44.379,48.02 44.379,48.02L45.585,46.987Z" style="fill:rgb(100,134,33);stroke:rgb(59,79,19);stroke-width:0.56px;"/>
            <path id="Leaf-Shadow2" serif:id="Leaf Shadow" d="M42.404,41.135C41.776,40.389 40.916,39.898 39.836,39.193C38.137,38.082 37.399,37.785 36.114,37.471C34.829,37.157 33.352,37.091 32.17,37.11C31.209,37.126 30.284,37.137 29.419,37.191C28.673,37.238 27.771,37.424 26.954,37.809C26.46,38.043 25.424,38.575 25.424,38.575C25.424,38.575 27.732,39.631 28.536,41.665C29.081,43.043 29.975,43.869 30.838,44.585C31.527,45.157 33.196,45.902 34.046,46.182C34.969,46.486 35.873,46.687 36.835,46.609C37.79,46.531 38.676,46.209 39.395,45.689C40.074,45.198 41.261,44.323 41.948,44.019C42.603,43.729 43.446,43.97 43.603,43.666C43.76,43.362 42.809,41.615 42.404,41.135Z" style="fill:rgb(77,104,26);"/>
        </g>
    </g>
    <g transform="matrix(0.206688,-0.0662431,0.0662431,0.206688,8.62017,16.9391)">
        <text x="66.459px" y="30.025px" style="font-family:'Arial-BoldMT', 'Arial', sans-serif;font-weight:700;font-size:6.781px;fill:rgb(205,50,76);">0101010101<tspan x="103.797px 107.195px 110.966px " y="30.025px 30.025px 30.025px ">110</tspan>000</text>
        <text x="49.491px" y="37.028px" style="font-family:'Arial-BoldMT', 'Arial', sans-serif;font-weight:700;font-size:6.781px;fill:rgb(205,50,76);">00100000 01010101 01<tspan x="120.766px 124.163px 127.935px " y="37.028px 37.028px 37.028px ">110</tspan>000</text>
        <text x="49.865px" y="44.031px" style="font-family:'Arial-BoldMT', 'Arial', sans-serif;font-weight:700;font-size:6.781px;fill:rgb(205,50,76);">00100000 01000100 01<tspan x="121.14px 124.912px 128.683px 132.08px " y="44.031px 44.031px 44.031px 44.031px ">1011</tspan>11</text>
        <text x="34.399px" y="51.033px" style="font-family:'Arial-BoldMT', 'Arial', sans-serif;font-weight:700;font-size:6.781px;fill:rgb(205,50,76);">01<tspan x="41.567px 44.964px 48.736px 52.507px 55.904px 59.301px 63.072px " y="51.033px 51.033px 51.033px 51.033px 51.033px 51.033px 51.033px ">110111 </tspan>01<tspan x="72.125px 75.896px 79.667px 83.064px 86.461px 90.232px " y="51.033px 51.033px 51.033px 51.033px 51.033px 51.033px ">101110</tspan> 00100000 01000100</text>
        <text x="36.038px" y="58.036px" style="font-family:'Arial-BoldMT', 'Arial', sans-serif;font-weight:700;font-size:6.781px;fill:rgb(205,50,76);">01<tspan x="43.207px 46.978px 50.749px 54.146px " y="58.036px 58.036px 58.036px 58.036px ">1011</tspan>11<tspan x="64.712px " y="58.036px "> </tspan>01<tspan x="73.764px 77.161px 80.932px 84.703px 88.1px 91.498px 95.269px " y="58.036px 58.036px 58.036px 58.036px 58.036px 58.036px 58.036px ">110111 </tspan>01<tspan x="104.321px 108.092px 111.863px 115.26px 118.658px 122.429px " y="58.036px 58.036px 58.036px 58.036px 58.036px 58.036px ">101110</tspan> 00100000</text>
        <text x="34.67px" y="65.039px" style="font-family:'Arial-BoldMT', 'Arial', sans-serif;font-weight:700;font-size:6.781px;fill:rgb(205,50,76);">01001<tspan x="53.152px 56.923px " y="65.039px 65.039px ">10</tspan>0 01<tspan x="73.518px 77.289px " y="65.039px 65.039px ">10</tspan>0101 01<tspan x="105.197px 108.969px " y="65.039px 65.039px ">10</tspan>01<tspan x="119.908px 123.679px " y="65.039px 65.039px ">10</tspan> 01<tspan x="136.503px 139.9px 143.671px " y="65.039px 65.039px 65.039px ">110</tspan>100</text>
        <text x="33.863px" y="72.042px" style="font-family:'Arial-BoldMT', 'Arial', sans-serif;font-weight:700;font-size:6.781px;fill:rgb(205,50,76);">00100000 01010010 01<tspan x="105.138px 108.91px " y="72.042px 72.042px ">10</tspan>1001 01<tspan x="136.818px 140.589px " y="72.042px 72.042px ">10</tspan>01<tspan x="151.529px " y="72.042px ">1</tspan>1</text>
        <text x="33.43px" y="79.044px" style="font-family:'Arial-BoldMT', 'Arial', sans-serif;font-weight:700;font-size:6.781px;fill:rgb(205,50,76);">01<tspan x="40.598px 44.369px " y="79.044px 79.044px ">10</tspan>1000 01<tspan x="72.277px 75.674px 79.446px " y="79.044px 79.044px 79.044px ">110</tspan>100 00100000 01001<tspan x="146.95px 150.721px " y="79.044px 79.044px ">10</tspan>0</text>
        <text x="33.183px" y="86.047px" style="font-family:'Arial-BoldMT', 'Arial', sans-serif;font-weight:700;font-size:6.781px;fill:rgb(205,50,76);">01<tspan x="40.352px 44.123px " y="86.047px 86.047px ">10</tspan>0101 01<tspan x="72.031px 75.803px " y="86.047px 86.047px ">10</tspan>01<tspan x="86.742px 90.513px " y="86.047px 86.047px ">10</tspan> 01<tspan x="103.337px 106.734px 110.505px " y="86.047px 86.047px 86.047px ">110</tspan>100 00100000</text>
        <text x="32.75px" y="93.05px" style="font-family:'Arial-BoldMT', 'Arial', sans-serif;font-weight:700;font-size:6.781px;fill:rgb(205,50,76);">01010010 01<tspan x="71.972px 75.744px " y="93.05px 93.05px ">10</tspan>1001 01<tspan x="103.652px 107.423px " y="93.05px 93.05px ">10</tspan>01<tspan x="118.363px 121.76px 125.531px " y="93.05px 93.05px 93.05px ">11 </tspan>01<tspan x="134.583px 138.354px " y="93.05px 93.05px ">10</tspan>1000</text>
        <text x="32.317px" y="100.053px" style="font-family:'Arial-BoldMT', 'Arial', sans-serif;font-weight:700;font-size:6.781px;fill:rgb(205,50,76);">01<tspan x="39.485px 42.883px 46.654px " y="100.053px 100.053px 100.053px ">110</tspan>100 00100000 0101001<tspan x="121.701px 125.472px " y="100.053px 100.053px ">1 </tspan>01<tspan x="134.524px 137.921px 141.692px " y="100.053px 100.053px 100.053px ">110</tspan>100</text>
        <text x="48.296px" y="107.055px" style="font-family:'Arial-BoldMT', 'Arial', sans-serif;font-weight:700;font-size:6.781px;fill:rgb(205,50,76);">01<tspan x="55.465px 59.236px " y="107.055px 107.055px ">10</tspan>0001 01<tspan x="87.144px 90.541px 94.312px " y="107.055px 107.055px 107.055px ">110</tspan>010 01<tspan x="118.449px 121.847px 125.618px " y="107.055px 107.055px 107.055px ">110</tspan>100</text>
        <text x="46.899px" y="114.058px" style="font-family:'Arial-BoldMT', 'Arial', sans-serif;font-weight:700;font-size:6.781px;fill:rgb(205,50,76);">00100000 0101001<tspan x="104.977px 108.748px " y="114.058px 114.058px ">1 </tspan>01<tspan x="117.8px 121.571px " y="114.058px 114.058px ">10</tspan>0101</text>
        <text x="62.276px" y="121.061px" style="font-family:'Arial-BoldMT', 'Arial', sans-serif;font-weight:700;font-size:6.781px;fill:rgb(205,50,76);">01<tspan x="69.445px 73.216px 76.987px 80.384px 84.155px " y="121.061px 121.061px 121.061px 121.061px 121.061px ">10110</tspan>0 01<tspan x="100.75px 104.521px " y="121.061px 121.061px ">10</tspan>0101</text>
        <text x="61.627px" y="128.064px" style="font-family:'Arial-BoldMT', 'Arial', sans-serif;font-weight:700;font-size:6.781px;fill:rgb(205,50,76);">01<tspan x="68.795px 72.567px " y="128.064px 128.064px ">10</tspan>001<tspan x="87.277px 91.049px " y="128.064px 128.064px ">1 </tspan>01<tspan x="100.101px 103.498px 107.269px " y="128.064px 128.064px 128.064px ">110</tspan>100</text>
    </g>
    <g transform="matrix(1,0,0,1,1.3704,-0.712606)">
        <g transform="matrix(1,-0,-0,1,-1.3704,0.712606)">
            <path d="M4.828,11.935L6.257,13.365L7.687,11.935" style="fill:none;stroke:rgb(205,50,76);stroke-width:1.27px;stroke-linejoin:miter;stroke-miterlimit:10;"/>
            <path d="M13.522,3.351L14.951,4.78L13.522,6.21" style="fill:none;stroke:rgb(205,50,76);stroke-width:1.27px;stroke-linejoin:miter;stroke-miterlimit:10;"/>
            <path d="M6.257,13.365L6.257,4.78L14.951,4.78" style="fill:none;stroke:rgb(205,50,76);stroke-width:1.27px;stroke-linejoin:miter;"/>
        </g>
    </g>
    <path d="M49.034,7.544C49.038,7.018 49.469,6.595 49.995,6.599C50.521,6.603 50.944,7.034 50.94,7.56C50.936,8.086 50.505,8.509 49.979,8.505C49.454,8.501 49.03,8.07 49.034,7.544Z" style="fill:none;stroke:rgb(132,37,152);stroke-width:1.27px;stroke-linecap:butt;stroke-linejoin:miter;stroke-miterlimit:10;"/>
    <path d="M50,11.656C50,11.656 49.985,10.022 49.979,8.505" style="fill:none;stroke:rgb(132,37,152);stroke-width:1.27px;stroke-linecap:butt;"/>
    <path d="M43.52,3.484L44.595,5.956L47.067,4.881" style="fill:none;stroke:rgb(179,50,205);stroke-width:1.27px;stroke-linecap:butt;stroke-linejoin:miter;stroke-miterlimit:10;"/>
    <path d="M56.612,3.692L55.41,6.105L52.997,4.904" style="fill:none;stroke:rgb(179,50,205);stroke-width:1.27px;stroke-linecap:butt;stroke-linejoin:miter;stroke-miterlimit:10;"/>
    <path d="M44.595,5.956C45.454,3.805 46.718,1.182 49.977,1.162C53.316,1.141 54.649,3.935 55.41,6.105" style="fill:none;stroke:rgb(179,50,205);stroke-width:1.27px;stroke-linecap:butt;"/>
    <g id="Mouse" transform="matrix(1,0,0,1,-0.643243,-1.19459)">
        <path d="M94.434,85.474L92.024,82.285L88.68,84.515L87.689,75.348L94.75,79.932L92.024,82.285" style="fill:white;stroke:rgb(26,26,26);stroke-width:2px;"/>
    </g>
</svg>
