<svg viewBox="0 0 100 100" xmlns="http://www.w3.org/2000/svg" xml:space="preserve" style="fill-rule:evenodd;clip-rule:evenodd;stroke-linecap:round;stroke-linejoin:round;stroke-miterlimit:1.5"><path style="fill:#9acd32;fill-opacity:.77" d="M13.123 11.776H86.29v61.427H13.123z"/><path d="M45.068 71.586c-.408-4.414-6.021-5.666-6.601-11.702-.685-7.121 4.293-10.1 7.344-12.73 2.189-1.887 3.919-3.517 5.061-5.727 1.073-2.074 1.303-3.237 1.14-5.778-.116-1.802-.883-3.1-2.012-4.243-1.086-1.099-4.271-1.958-4.271-1.958s-.309-.568 2.672-1.387c2.491-.685 4.522-.287 5.732.652 1.35 1.048 2.281 2.27 2.938 4.325.734 2.296 1.204 5.606.816 8.389-.394 2.827-2.407 5.13-4.406 7.757-1.52 1.997-3.759 3.574-4.488 6.324-.378 1.425-.004 2.471.752 3.938.676 1.313 2.466 2.415 3.587 3.213s1.116.448 3.614 3.236c.874.975 2.133 5.178 2.378 6.193" style="fill:#648621;stroke:#3b4f13;stroke-width:.91px"/><path d="M66.792 70.929a18.912 18.912 0 0 1 2.435 9.309c0 10.491-8.517 19.007-19.007 19.007-10.491 0-19.007-8.516-19.007-19.007 0-3.381.884-6.557 2.434-9.309 2.311.823 3.042.959 6.01 0 2.036-.657 4.24-1.866 6.235-1.15 1.766.633 4.888 2.411 7.801 1.072 2.418-1.111 5.199-2.088 7.042-.74 2.121 1.551 4.109 2.247 6.057.818z" style="fill:#624e44;stroke:#3c302a;stroke-width:.91px"/><path d="M55.821 85.526s-.417-3.238-.138-5.331c.674-5.049 3.835-5.826 3.835-5.826s-3.341-1.972-6.388.991c-.584.567-1.158 1.543-1.158 1.543l3.849 8.623z" style="fill:#435a16;stroke:#000;stroke-width:.36px" transform="translate(.303 1.634)"/><path d="M47.447 77.674s-1.511-1.631-2.382-2.314c-3.333-2.615-5.538-1.251-5.538-1.251s2.15-.795 4.119 6.123c.318 1.114.509 5.727.509 5.727l3.292-8.285z" style="fill:#435a16;stroke:#000;stroke-width:.36px" transform="translate(.13 .664)"/><path d="M50 97.885c2.229.017 7.527-3.306 7.527-6.171 0-3.754-5.298-16.337-7.527-16.354-2.229-.017-7.182 12.703-7.182 16.457 0 3.134 4.953 6.051 7.182 6.068z" style="fill:#79a227;stroke:#000;stroke-width:.36px"/><path d="M50.172 97.885s.437-4.607-1.339-8.468c-2.526-5.492-4.616-4.73-6.015-4.373-1.141.291-3.161 1.579-3.161 1.579s1.959.701 2.378 1.452c.527.942.432 2.82.783 4.2.621 2.439 1.474 2.759 2.681 3.68.471.359 1.271 1.118 2.077 1.435 1.29.508 2.596.495 2.596.495z" style="fill:#435a16;stroke:#000;stroke-width:.36px"/><path d="M50.172 97.885s.437-4.607-1.339-8.468c-2.526-5.492-4.616-4.73-6.015-4.373-1.141.291-3.161 1.579-3.161 1.579s1.959.701 2.378 1.452c.527.942.432 2.82.783 4.2.621 2.439 1.474 2.759 2.681 3.68.471.359 1.271 1.118 2.077 1.435 1.29.508 2.596.495 2.596.495z" style="fill:#435a16;stroke:#000;stroke-width:.36px" transform="matrix(-1 0 0 1 100.392 0)"/><path d="M50.043 76.038c-.61.177-1.911 2.141-1.427 4.482.639 3.083 1.376 5.046 3.334 4.793 1.503-.195 1.916-.506 2.165-2.001.149-.891-.937-3.023-1.493-3.983s-1.969-3.467-2.579-3.291z" style="fill:#9acd32"/><path style="fill:none;stroke:#842598;stroke-width:1.07px" d="M13.123 11.599H86.29v59.656H13.123z" transform="matrix(1 0 0 1.0317 0 -.31)"/><circle cx="14.154" cy="48.201" r="1.799" style="fill:#aa3fc0;stroke:#842598;stroke-width:.89px" transform="matrix(1 0 0 1.0317 -1.03 23.474)"/><circle cx="14.154" cy="48.201" r="1.799" style="fill:#aa3fc0;stroke:#842598;stroke-width:.89px" transform="matrix(1 0 0 1.0317 72.137 23.474)"/><circle cx="14.154" cy="48.201" r="1.799" style="fill:#aa3fc0;stroke:#842598;stroke-width:.89px" transform="matrix(1 0 0 1.0317 -1.03 -38.073)"/><circle cx="14.154" cy="48.201" r="1.799" style="fill:#aa3fc0;stroke:#842598;stroke-width:.89px" transform="matrix(1 0 0 1.0317 72.137 -38.073)"/><path d="m45.585 46.987-1.239-2.046s.978-2.191 1.077-3.286c.099-1.095.054-2.379-.485-3.286-.538-.906-1.653-1.756-2.747-2.154-1.283-.467-3.079-.871-4.686-.916-1.566-.043-3.574.208-5.117.485-1.597.287-3.294.754-4.632 1.185-1.066.344-3.231 1.562-3.231 1.562s1.885 1.212 2.585 1.993c.7.781.996 1.876 1.616 2.693.603.796 1.472 1.621 2.316 2.155.978.619 2.424 1.274 3.555 1.562 1.063.269 1.982.398 3.07.107 1.083-.289 1.697-.646 2.478-1.185.565-.39 1.22-.917 1.669-1.131.354-.168.965-.417 1.412-.377.376.034 1.027.184 1.12.593.134.592.033 3.079.033 3.079l1.206-1.033z" style="fill:#648621;stroke:#3b4f13;stroke-width:.56px" transform="matrix(.96904 0 0 .96503 -.696 6.565)"/><path d="M42.404 41.135c-.628-.746-1.488-1.237-2.568-1.942-1.699-1.111-2.437-1.408-3.722-1.722-1.285-.314-2.762-.38-3.944-.361-.961.016-1.886.027-2.751.081a6.976 6.976 0 0 0-2.465.618c-.494.234-1.53.766-1.53.766s2.308 1.056 3.112 3.09c.545 1.378 1.439 2.204 2.302 2.92.689.572 2.358 1.317 3.208 1.597.923.304 1.827.505 2.789.427a5.066 5.066 0 0 0 2.56-.92c.679-.491 1.866-1.366 2.553-1.67.655-.29 1.498-.049 1.655-.353.157-.304-.794-2.051-1.199-2.531z" style="fill:#4d681a" transform="matrix(.96904 0 0 .96503 -.696 6.565)"/><g><path d="m45.585 46.987-1.239-2.046s.978-2.191 1.077-3.286c.099-1.095.054-2.379-.485-3.286-.538-.906-1.653-1.756-2.747-2.154-1.283-.467-3.079-.871-4.686-.916-1.566-.043-3.574.208-5.117.485-1.597.287-3.294.754-4.632 1.185-1.066.344-3.231 1.562-3.231 1.562s1.885 1.212 2.585 1.993c.7.781.996 1.876 1.616 2.693.603.796 1.472 1.621 2.316 2.155.978.619 2.424 1.274 3.555 1.562 1.063.269 1.982.398 3.07.107 1.083-.289 1.697-.646 2.478-1.185.565-.39 1.22-.917 1.669-1.131.354-.168.965-.417 1.412-.377.376.034 1.027.184 1.12.593.134.592.033 3.079.033 3.079l1.206-1.033z" style="fill:#648621;stroke:#3b4f13;stroke-width:2.1px" transform="matrix(-.25482 .05034 .05014 .25376 59.186 49.463)"/><path d="M42.404 41.135c-.628-.746-1.488-1.237-2.568-1.942-1.699-1.111-2.437-1.408-3.722-1.722-1.285-.314-2.762-.38-3.944-.361-.961.016-1.886.027-2.751.081a6.976 6.976 0 0 0-2.465.618c-.494.234-1.53.766-1.53.766s2.308 1.056 3.112 3.09c.545 1.378 1.439 2.204 2.302 2.92.689.572 2.358 1.317 3.208 1.597.923.304 1.827.505 2.789.427a5.066 5.066 0 0 0 2.56-.92c.679-.491 1.866-1.366 2.553-1.67.655-.29 1.498-.049 1.655-.353.157-.304-.794-2.051-1.199-2.531z" style="fill:#4d681a" transform="matrix(-.25482 .05034 .05014 .25376 59.186 49.463)"/></g><g><path d="m45.585 46.987-1.239-2.046s.978-2.191 1.077-3.286c.099-1.095.054-2.379-.485-3.286-.538-.906-1.653-1.756-2.747-2.154-1.283-.467-3.079-.871-4.686-.916-1.566-.043-3.574.208-5.117.485-1.597.287-3.294.754-4.632 1.185-1.066.344-3.231 1.562-3.231 1.562s1.885 1.212 2.585 1.993c.7.781.996 1.876 1.616 2.693.603.796 1.472 1.621 2.316 2.155.978.619 2.424 1.274 3.555 1.562 1.063.269 1.982.398 3.07.107 1.083-.289 1.697-.646 2.478-1.185.565-.39 1.22-.917 1.669-1.131.354-.168.965-.417 1.412-.377.376.034 1.027.184 1.12.593.134.592.033 3.079.033 3.079l1.206-1.033z" style="fill:#648621;stroke:#3b4f13;stroke-width:.56px" transform="matrix(-.96857 -.23301 -.22166 .92139 110.198 -.91)"/><path d="M42.404 41.135c-.628-.746-1.488-1.237-2.568-1.942-1.699-1.111-2.437-1.408-3.722-1.722-1.285-.314-2.762-.38-3.944-.361-.961.016-1.886.027-2.751.081a6.976 6.976 0 0 0-2.465.618c-.494.234-1.53.766-1.53.766s2.308 1.056 3.112 3.09c.545 1.378 1.439 2.204 2.302 2.92.689.572 2.358 1.317 3.208 1.597.923.304 1.827.505 2.789.427a5.066 5.066 0 0 0 2.56-.92c.679-.491 1.866-1.366 2.553-1.67.655-.29 1.498-.049 1.655-.353.157-.304-.794-2.051-1.199-2.531z" style="fill:#4d681a" transform="matrix(-.96857 -.23301 -.22166 .92139 110.198 -.91)"/></g><g><text x="66.459" y="30.025" style="font-family:'Arial-BoldMT','Arial',sans-serif;font-weight:700;font-size:6.781px;fill:#cd324c" transform="matrix(.20669 -.06624 .06624 .20669 8.62 16.94)">0101010101<tspan x="103.797px 107.195px 110.966px" y="30.025px 30.025px 30.025px">110</tspan>000</text><text x="49.491" y="37.028" style="font-family:'Arial-BoldMT','Arial',sans-serif;font-weight:700;font-size:6.781px;fill:#cd324c" transform="matrix(.20669 -.06624 .06624 .20669 8.62 16.94)">00100000 01010101 01<tspan x="120.766px 124.163px 127.935px" y="37.028px 37.028px 37.028px">110</tspan>000</text><text x="49.865" y="44.031" style="font-family:'Arial-BoldMT','Arial',sans-serif;font-weight:700;font-size:6.781px;fill:#cd324c" transform="matrix(.20669 -.06624 .06624 .20669 8.62 16.94)">00100000 01000100 01<tspan x="121.14px 124.912px 128.683px 132.08px" y="44.031px 44.031px 44.031px 44.031px">1011</tspan>11</text><text x="34.399" y="51.033" style="font-family:'Arial-BoldMT','Arial',sans-serif;font-weight:700;font-size:6.781px;fill:#cd324c" transform="matrix(.20669 -.06624 .06624 .20669 8.62 16.94)">01<tspan x="41.567px 44.964px 48.736px 52.507px 55.904px 59.301px 63.072px" y="51.033px 51.033px 51.033px 51.033px 51.033px 51.033px 51.033px">110111 </tspan>01<tspan x="72.125px 75.896px 79.667px 83.064px 86.461px 90.232px" y="51.033px 51.033px 51.033px 51.033px 51.033px 51.033px">101110</tspan> 00100000 01000100</text><text x="36.038" y="58.036" style="font-family:'Arial-BoldMT','Arial',sans-serif;font-weight:700;font-size:6.781px;fill:#cd324c" transform="matrix(.20669 -.06624 .06624 .20669 8.62 16.94)">01<tspan x="43.207px 46.978px 50.749px 54.146px" y="58.036px 58.036px 58.036px 58.036px">1011</tspan>11<tspan x="64.712" y="58.036"> </tspan>01<tspan x="73.764px 77.161px 80.932px 84.703px 88.1px 91.498px 95.269px" y="58.036px 58.036px 58.036px 58.036px 58.036px 58.036px 58.036px">110111 </tspan>01<tspan x="104.321px 108.092px 111.863px 115.26px 118.658px 122.429px" y="58.036px 58.036px 58.036px 58.036px 58.036px 58.036px">101110</tspan> 00100000</text><text x="34.67" y="65.039" style="font-family:'Arial-BoldMT','Arial',sans-serif;font-weight:700;font-size:6.781px;fill:#cd324c" transform="matrix(.20669 -.06624 .06624 .20669 8.62 16.94)">01001<tspan x="53.152px 56.923px" y="65.039px 65.039px">10</tspan>0 01<tspan x="73.518px 77.289px" y="65.039px 65.039px">10</tspan>0101 01<tspan x="105.197px 108.969px" y="65.039px 65.039px">10</tspan>01<tspan x="119.908px 123.679px" y="65.039px 65.039px">10</tspan> 01<tspan x="136.503px 139.9px 143.671px" y="65.039px 65.039px 65.039px">110</tspan>100</text><text x="33.863" y="72.042" style="font-family:'Arial-BoldMT','Arial',sans-serif;font-weight:700;font-size:6.781px;fill:#cd324c" transform="matrix(.20669 -.06624 .06624 .20669 8.62 16.94)">00100000 01010010 01<tspan x="105.138px 108.91px" y="72.042px 72.042px">10</tspan>1001 01<tspan x="136.818px 140.589px" y="72.042px 72.042px">10</tspan>01<tspan x="151.529" y="72.042">1</tspan>1</text><text x="33.43" y="79.044" style="font-family:'Arial-BoldMT','Arial',sans-serif;font-weight:700;font-size:6.781px;fill:#cd324c" transform="matrix(.20669 -.06624 .06624 .20669 8.62 16.94)">01<tspan x="40.598px 44.369px" y="79.044px 79.044px">10</tspan>1000 01<tspan x="72.277px 75.674px 79.446px" y="79.044px 79.044px 79.044px">110</tspan>100 00100000 01001<tspan x="146.95px 150.721px" y="79.044px 79.044px">10</tspan>0</text><text x="33.183" y="86.047" style="font-family:'Arial-BoldMT','Arial',sans-serif;font-weight:700;font-size:6.781px;fill:#cd324c" transform="matrix(.20669 -.06624 .06624 .20669 8.62 16.94)">01<tspan x="40.352px 44.123px" y="86.047px 86.047px">10</tspan>0101 01<tspan x="72.031px 75.803px" y="86.047px 86.047px">10</tspan>01<tspan x="86.742px 90.513px" y="86.047px 86.047px">10</tspan> 01<tspan x="103.337px 106.734px 110.505px" y="86.047px 86.047px 86.047px">110</tspan>100 00100000</text><text x="32.75" y="93.05" style="font-family:'Arial-BoldMT','Arial',sans-serif;font-weight:700;font-size:6.781px;fill:#cd324c" transform="matrix(.20669 -.06624 .06624 .20669 8.62 16.94)">01010010 01<tspan x="71.972px 75.744px" y="93.05px 93.05px">10</tspan>1001 01<tspan x="103.652px 107.423px" y="93.05px 93.05px">10</tspan>01<tspan x="118.363px 121.76px 125.531px" y="93.05px 93.05px 93.05px">11 </tspan>01<tspan x="134.583px 138.354px" y="93.05px 93.05px">10</tspan>1000</text><text x="32.317" y="100.053" style="font-family:'Arial-BoldMT','Arial',sans-serif;font-weight:700;font-size:6.781px;fill:#cd324c" transform="matrix(.20669 -.06624 .06624 .20669 8.62 16.94)">01<tspan x="39.485px 42.883px 46.654px" y="100.053px 100.053px 100.053px">110</tspan>100 00100000 0101001<tspan x="121.701px 125.472px" y="100.053px 100.053px">1 </tspan>01<tspan x="134.524px 137.921px 141.692px" y="100.053px 100.053px 100.053px">110</tspan>100</text><text x="48.296" y="107.055" style="font-family:'Arial-BoldMT','Arial',sans-serif;font-weight:700;font-size:6.781px;fill:#cd324c" transform="matrix(.20669 -.06624 .06624 .20669 8.62 16.94)">01<tspan x="55.465px 59.236px" y="107.055px 107.055px">10</tspan>0001 01<tspan x="87.144px 90.541px 94.312px" y="107.055px 107.055px 107.055px">110</tspan>010 01<tspan x="118.449px 121.847px 125.618px" y="107.055px 107.055px 107.055px">110</tspan>100</text><text x="46.899" y="114.058" style="font-family:'Arial-BoldMT','Arial',sans-serif;font-weight:700;font-size:6.781px;fill:#cd324c" transform="matrix(.20669 -.06624 .06624 .20669 8.62 16.94)">00100000 0101001<tspan x="104.977px 108.748px" y="114.058px 114.058px">1 </tspan>01<tspan x="117.8px 121.571px" y="114.058px 114.058px">10</tspan>0101</text><text x="62.276" y="121.061" style="font-family:'Arial-BoldMT','Arial',sans-serif;font-weight:700;font-size:6.781px;fill:#cd324c" transform="matrix(.20669 -.06624 .06624 .20669 8.62 16.94)">01<tspan x="69.445px 73.216px 76.987px 80.384px 84.155px" y="121.061px 121.061px 121.061px 121.061px 121.061px">10110</tspan>0 01<tspan x="100.75px 104.521px" y="121.061px 121.061px">10</tspan>0101</text><text x="61.627" y="128.064" style="font-family:'Arial-BoldMT','Arial',sans-serif;font-weight:700;font-size:6.781px;fill:#cd324c" transform="matrix(.20669 -.06624 .06624 .20669 8.62 16.94)">01<tspan x="68.795px 72.567px" y="128.064px 128.064px">10</tspan>001<tspan x="87.277px 91.049px" y="128.064px 128.064px">1 </tspan>01<tspan x="100.101px 103.498px 107.269px" y="128.064px 128.064px 128.064px">110</tspan>100</text></g><g><path d="m4.828 11.935 1.429 1.43 1.43-1.43M13.522 3.351l1.429 1.429-1.429 1.43" style="fill:none;stroke:#cd324c;stroke-width:1.27px;stroke-linejoin:miter;stroke-miterlimit:10"/><path d="M6.257 13.365V4.78h8.694" style="fill:none;stroke:#cd324c;stroke-width:1.27px;stroke-linejoin:miter"/></g><path d="M49.034 7.544a.953.953 0 1 1 1.907.017.953.953 0 0 1-1.907-.017z" style="fill:none;stroke:#842598;stroke-width:1.27px;stroke-linecap:butt;stroke-linejoin:miter;stroke-miterlimit:10"/><path d="M50 11.656s-.015-1.634-.021-3.151" style="fill:none;stroke:#842598;stroke-width:1.27px;stroke-linecap:butt"/><path d="m43.52 3.484 1.075 2.472 2.472-1.075M56.612 3.692 55.41 6.105l-2.413-1.201" style="fill:none;stroke:#b332cd;stroke-width:1.27px;stroke-linecap:butt;stroke-linejoin:miter;stroke-miterlimit:10"/><path d="M44.595 5.956c.859-2.151 2.123-4.774 5.382-4.794 3.339-.021 4.672 2.773 5.433 4.943" style="fill:none;stroke:#b332cd;stroke-width:1.27px;stroke-linecap:butt"/><g><path d="m94.434 85.474-2.41-3.189-3.344 2.23-.991-9.167 7.061 4.584-2.726 2.353" style="fill:none;stroke:#1a1a1a;stroke-width:2px" transform="translate(-.643 -1.195)"/></g></svg>